<svg xmlns="http://www.w3.org/2000/svg" width="1024" height="768" viewBox="0 0 1024 768"><path fill="#d6ba32" d="M249.2 674.5L190.9 19.4h642.2l-58.3 655.1-263.5 74.1"/><path fill="#ffda3e" d="M512.7 696.5l212.2-58.4L774.8 77H512.7z"/><g transform="translate(.25 -.664)"><linearGradient id="a" gradientUnits="userSpaceOnUse" x1="30.734" y1="692.755" x2="340.572" y2="692.755" gradientTransform="matrix(1.0501 0 0 1.1201 317.15 -290.412)"><stop offset="0" stop-color="#646464"/><stop offset="1"/></linearGradient><path d="M511.9 411.8v124.1c74.9-2.5 144.2.9 142.9 23.4l6.3-111.3s1.8-31-149.2-36.2" fill="url(#a)"/><linearGradient id="b" gradientUnits="userSpaceOnUse" x1="30.734" y1="698.115" x2="340.572" y2="698.115" gradientTransform="matrix(1.0501 0 0 1.1201 317.15 -463.934)"><stop offset="0" stop-color="#646464"/><stop offset="1"/></linearGradient><path d="M511.9 227.3v141.4c79.6 4.3 152.9 14.6 151.5 39.9l7.1-125.4c0 .1 2-35-158.6-55.9" fill="url(#b)"/></g><g transform="translate(1.354 .354)"><linearGradient id="c" gradientUnits="userSpaceOnUse" x1="29.63" y1="663.394" x2="339.469" y2="663.394" gradientTransform="matrix(1.0501 0 0 1.1201 318.746 -462.39)"><stop offset="0" stop-color="#4b4b4b"/><stop offset="1"/></linearGradient><path d="M347.4 192.6l7.5 133s76.4 17.5 157.4 43.1v-141c-44.9-11.9-99.4-23.9-164.9-35.1" fill="url(#c)"/><linearGradient id="d" gradientUnits="userSpaceOnUse" x1="29.63" y1="660.995" x2="339.469" y2="660.995" gradientTransform="matrix(1.0501 0 0 1.1201 318.746 -288.869)"><stop offset="0" stop-color="#4b4b4b"/><stop offset="1"/></linearGradient><path d="M357.2 367.3l6.6 118s72.2 21.4 148.4 50.4V411.6c-42-14.1-93.2-29.1-155-44.3" fill="url(#d)"/></g><g transform="translate(.25 -.664)"><linearGradient id="e" gradientUnits="userSpaceOnUse" x1="30.734" y1="665.163" x2="340.572" y2="665.163" gradientTransform="matrix(1.0501 0 0 -1.1201 317.15 954.329)"><stop offset="0" stop-color="#a00000"/><stop offset="1" stop-color="red"/></linearGradient><path d="M681.1 96.6c-1.8 31-83.2 58.1-169.2 78.8v146.5c159.1-47.7 161.1-83 161.1-83l8.1-142.3" fill="url(#e)"/><linearGradient id="f" gradientUnits="userSpaceOnUse" x1="30.734" y1="504.7" x2="340.572" y2="504.7" gradientTransform="matrix(1.0501 0 0 -1.1201 317.15 954.329)"><stop offset="0" stop-color="#a00000"/><stop offset="1" stop-color="red"/></linearGradient><path d="M670.5 283.3c-1.5 27.2-78 57.8-158.6 83.1v128.3c149.7-54.8 151.5-86 151.5-86l7.1-125.4" fill="url(#f)"/><linearGradient id="g" gradientUnits="userSpaceOnUse" x1="30.734" y1="363.198" x2="340.572" y2="363.198" gradientTransform="matrix(1.0501 0 0 -1.1201 317.15 954.329)"><stop offset="0" stop-color="#a00000"/><stop offset="1" stop-color="red"/></linearGradient><path d="M661.1 448c-1.4 24.1-73.5 57.2-149.2 85.8V647c141.3-60 142.9-87.8 142.9-87.8l6.3-111.2" fill="url(#g)"/></g><g transform="translate(1.354 .354)"><linearGradient id="h" gradientUnits="userSpaceOnUse" x1="29.63" y1="627.977" x2="339.469" y2="627.977" gradientTransform="matrix(1.0501 0 0 -1.1201 318.746 953.592)"><stop offset="0" stop-color="#780000"/><stop offset="1" stop-color="#c00000"/></linearGradient><path d="M512.2 174.7c-85.5 13.2-164.8 18-164.8 18l7.5 133c62.2.6 114.2-1.3 157.4-4.9V174.7h-.1" fill="url(#h)"/><linearGradient id="i" gradientUnits="userSpaceOnUse" x1="29.63" y1="468.143" x2="339.469" y2="468.143" gradientTransform="matrix(1.0501 0 0 -1.1201 318.746 953.592)"><stop offset="0" stop-color="#780000"/><stop offset="1" stop-color="#c00000"/></linearGradient><path d="M512.2 365.1c-80.2 4.6-155 2.2-155 2.2l6.6 118c58.8 5.5 107.8 7.8 148.4 8.1V365.1" fill="url(#i)"/><linearGradient id="j" gradientUnits="userSpaceOnUse" x1="29.63" y1="329.761" x2="339.469" y2="329.761" gradientTransform="matrix(1.0501 0 0 -1.1201 318.746 953.592)"><stop offset="0" stop-color="#780000"/><stop offset="1" stop-color="#c00000"/></linearGradient><path d="M512.2 532.5c-75.6-2.2-146.3-10.1-146.3-10.1l5.9 105.4c55.8 9.3 102.1 15 140.4 18.3V532.5" fill="url(#j)"/></g></svg>